<svg xmlns="http://www.w3.org/2000/svg" width="100" height="100" viewBox="0 0 100 100" fill="none">
  <g id="leaf1" opacity="0.15">
    <path d="M15 20c-3 1-5 4-4 7s4 4 7 3 5-4 4-7-4-4-7-3z" fill="#4A7C2F"/>
    <path d="M15 20l3 3.5" stroke="#2D5016" stroke-width="0.5"/>
  </g>
  <g id="leaf2" opacity="0.1">
    <path d="M75 35c-2 2-2 5 0 7s5 2 7 0 2-5 0-7-5-2-7 0z" fill="#4A7C2F"/>
    <path d="M78 38l1.5 1.5" stroke="#2D5016" stroke-width="0.5"/>
  </g>
  <g id="feather1" opacity="0.12">
    <path d="M45 70c-1 0-2 3-2 6s1 5 2 5 2-2 2-5-1-6-2-6z" fill="#D4A017"/>
    <path d="M45 70v11" stroke="#5D4037" stroke-width="0.3"/>
  </g>
  <g id="leaf3" opacity="0.08">
    <path d="M85 80c-2 1-3 3-2 5s3 3 5 2 3-3 2-5-3-3-5-2z" fill="#4A7C2F"/>
  </g>
  <g id="feather2" opacity="0.1">
    <path d="M25 55c-1 0-1.5 2-1.5 4s.5 3.5 1.5 3.5 1.5-1.5 1.5-3.5-.5-4-1.5-4z" fill="#D4A017"/>
    <path d="M25 55v7.5" stroke="#5D4037" stroke-width="0.3"/>
  </g>
</svg>
